<svg xmlns="http://www.w3.org/2000/svg" xmlns:xlink="http://www.w3.org/1999/xlink" width="40" height="40" viewBox="0 0 40 40">
    <defs>
        <path id="prefix__a" d="M0.01 0.1L32.049 0.1 32.049 6.667 0.01 6.667z"/>
    </defs>
    <g fill="none" fill-rule="evenodd">
        <rect width="40" height="40" fill="#006FD7" rx="1"/>
        <g>
            <path fill="#FFF" d="M0 6.559h1.92l.434-1.045h.97l.431 1.045h3.779V5.76l.337.802h1.962l.337-.814v.81h9.392l-.005-1.714h.182c.127.005.164.016.164.227v1.488h4.858v-.4c.391.21 1 .4 1.802.4h2.044l.437-1.045h.97l.427 1.045h3.938v-.992l.596.992h3.156V0h-3.123v.775L34.57 0h-3.205v.775L30.965 0h-4.329c-.724 0-1.361.101-1.875.383V0h-2.988v.383C21.446.093 21 0 20.504 0H9.591L8.86 1.694 8.107 0H4.67v.775L4.293 0H1.36L0 3.118v3.44zm37.129-.924h-1.593l-2.13-3.53v3.53h-2.29l-.437-1.049h-2.335l-.425 1.05h-1.315c-.547 0-1.238-.122-1.63-.52-.395-.4-.6-.941-.6-1.796 0-.698.122-1.335.605-1.84.364-.374.933-.548 1.707-.548h1.089V1.94h-1.066c-.41 0-.642.061-.865.279-.191.198-.323.572-.323 1.065 0 .504.1.867.31 1.104.172.186.487.243.783.243h.504L28.703.933h1.684L32.29 5.38V.933h1.712l1.975 3.275V.933h1.152v4.702zm-14.453 0h1.147V.933h-1.147v4.702zM22.024 2.2c0 .75-.5 1.137-.792 1.254.246.093.456.259.556.396.159.233.186.442.186.862v.924H20.84l-.004-.593c0-.283.027-.69-.178-.916-.164-.165-.414-.201-.819-.201h-1.207v1.71H17.51V.932h2.585c.574 0 .998.016 1.361.226.356.21.569.516.569 1.041zm-5.295 3.436h-3.755V.932h3.755v.98H14.1v.847h2.567v.964H14.1v.94h2.63v.972zm-4.592 0h-1.153l-.004-3.683-1.63 3.683h-.987L6.73 1.95v3.686H4.443L4.01 4.586H1.67l-.437 1.05H.014L2.025.931h1.67l1.912 4.453V.932h1.835l1.47 3.19 1.352-3.19h1.872v4.703zm18.158-2.029l-.777-1.875-.774 1.875h1.551zm-9.741-.747c-.155.094-.337.097-.556.097h-1.366V1.912h1.384c.196 0 .4.009.534.084.145.07.236.215.236.416 0 .206-.086.371-.232.447zm-16.949.747l-.77-1.875-.764 1.875h1.534z" transform="translate(0 13)"/>
            <g transform="translate(0 13) translate(7.943 7.99)">
                <mask id="prefix__b" fill="#fff">
                    <use xlink:href="#prefix__a"/>
                </mask>
                <path fill="#FFF" d="M13.845 2.585c0 1.307-.975 1.577-1.958 1.577h-1.402V5.74H8.3L6.916 4.182 5.477 5.74H1.025V1.036h4.52L6.93 2.578l1.43-1.542h3.591c.892 0 1.895.247 1.895 1.55zM4.908 4.76H2.144v-.936h2.468v-.96H2.144V2.01h2.819l1.23 1.37-1.285 1.38zm4.457.553L7.639 3.396 9.365 1.54v3.77zm2.572-2.106h-1.452V2.01h1.465c.406 0 .688.165.688.576 0 .407-.269.621-.7.621zm7.584-2.17h3.752v.973H20.64v.855h2.569v.96H20.64v.935l2.633.004v.977H19.52V1.036zm-1.42 2.518c.25.092.455.258.55.394.16.23.183.444.187.86v.932H17.71V5.15c0-.283.027-.702-.182-.92-.164-.17-.415-.21-.825-.21h-1.201V5.74h-1.13V1.036h2.596c.569 0 .983.025 1.352.222.355.214.578.508.578 1.044 0 .751-.5 1.134-.797 1.252zm-.679-.586c-.15.09-.336.097-.555.097h-1.365V2.01h1.384c.2 0 .4.004.536.085.146.076.233.222.233.423 0 .201-.087.363-.233.451zm10.143.29c.219.227.336.513.336.997 0 1.012-.632 1.485-1.765 1.485h-2.19V4.73h2.18c.214 0 .365-.028.46-.117.077-.072.133-.178.133-.306 0-.137-.06-.246-.137-.311-.086-.072-.205-.105-.4-.105-1.052-.036-2.368.033-2.368-1.456 0-.682.428-1.4 1.607-1.4h2.253v1.001h-2.062c-.204 0-.337.008-.45.085-.123.076-.169.19-.169.338 0 .178.105.299.246.35.119.042.246.054.438.054l.605.016c.61.015 1.029.12 1.283.379zm4.484 1.88c-.273.4-.805.602-1.525.602h-2.171V4.73h2.162c.214 0 .365-.028.455-.117.078-.072.133-.178.133-.306 0-.137-.055-.246-.138-.311-.081-.072-.2-.105-.396-.105-1.055-.036-2.372.033-2.372-1.456 0-.682.433-1.4 1.613-1.4h2.24V.1h-2.081c-.628 0-1.084.15-1.407.384V.1h-3.077c-.492 0-1.07.122-1.343.384V.1h-5.495v.384C18.21.17 17.472.1 17.132.1h-3.625v.384C13.161.15 12.392.1 11.923.1H7.866l-.928 1.005L6.07.1H.009v6.563h5.946l.956-1.02.901 1.02 3.665.004V5.123h.36c.486.007 1.06-.012 1.566-.231v1.771h3.023v-1.71h.146c.186 0 .204.007.204.193v1.517h9.182c.583 0 1.193-.15 1.53-.42v.42h2.913c.606 0 1.198-.085 1.648-.303V5.138zm0-3.101H30c-.204 0-.34.007-.455.085-.118.076-.164.189-.164.338 0 .178.1.298.246.35.119.042.246.054.433.054l.61.016c.614.015 1.025.12 1.275.379.045.036.073.076.104.116V2.037z"/>
            </g>
        </g>
    </g>
</svg>
