<svg xmlns="http://www.w3.org/2000/svg" width="40" height="40" viewBox="0 0 40 40">
    <g fill="none" fill-rule="evenodd">
        <g fill="#005BB9">
            <path d="M14.94 11.589l-2.28 3.464c-.131-.074-.254-.145-.378-.213-.66-.36-1.364-.566-2.114-.641-2.734-.276-5.326 1.592-5.892 4.384-.597 2.954 1.284 5.867 4.298 6.485 1.418.29 2.754.036 3.989-.724.093-.057.15-.08.227.033.72 1.079 1.448 2.153 2.173 3.229.018.027.033.057.063.108-1.2.806-2.504 1.328-3.93 1.527-2.732.383-5.213-.251-7.385-1.957C-.572 23.919-1.187 17.83 2.073 13.7c3.393-4.295 9.124-4.645 12.867-2.112zm9.798 3.663c1.7.64 2.718 1.86 3.036 3.646.073.4.101.813.102 1.22.01 2.862.004 5.723.008 8.583.001.163-.036.222-.21.22-1.1-.007-2.198-.006-3.297 0-.16.002-.21-.046-.206-.207.011-.376.004-.754.003-1.131 0-.052-.005-.106-.008-.16l-.038-.008c-.122.157-.235.32-.367.469-.698.79-1.59 1.217-2.626 1.363-1.112.159-2.193.054-3.212-.433-1.319-.631-2.145-1.67-2.33-3.124-.256-2.001.728-3.563 2.63-4.313.582-.23 1.191-.333 1.805-.425.69-.102 1.377-.211 2.065-.318.311-.048.625-.09.933-.152.49-.102.79-.404.814-.8.036-.596-.213-1.046-.726-1.34-.513-.292-1.075-.353-1.656-.29-.572.064-1.066.284-1.46.712-.293.319-.477.693-.542 1.12-.02.13-.069.159-.184.135-.926-.192-1.853-.382-2.779-.573-.157-.033-.313-.072-.472-.09-.164-.02-.205-.107-.17-.25.07-.278.12-.564.22-.831.551-1.463 1.602-2.432 3.034-3.01.62-.25 1.267-.391 1.934-.441 1.261-.093 2.504-.023 3.7.428zm8.763-4.818c.166-.001.219.043.219.214-.004 6.028-.004 12.056 0 18.085 0 .17-.051.215-.218.214-1.221-.006-2.442-.006-3.664 0-.16 0-.206-.044-.205-.205l.003-4.534V10.673c0-.235 0-.235.235-.235 1.21 0 2.42.003 3.63-.004zm6.402 16.22c.006.059.029.117.044.175v.133c-.024.117-.05.235-.073.354-.211.985-1.098 1.672-2.1 1.627-.952-.043-1.771-.812-1.918-1.749-.161-1.033.542-2.192 1.792-2.338 1.175-.138 2.145.733 2.255 1.798zm-16.2-3.726c-.889.143-1.78.276-2.668.433-.804.142-1.25.552-1.367 1.266-.114.688.214 1.367.963 1.59.392.118.787.119 1.184.059.891-.134 1.52-.597 1.834-1.457.224-.61.198-1.24.187-1.892-.058 0-.097-.005-.134 0z"/>
        </g>
    </g>
</svg>
