<svg xmlns="http://www.w3.org/2000/svg" width="12" height="12" viewBox="0 0 12 12">
    <g fill="none" fill-rule="evenodd">
        <g>
            <path fill="#525558" d="M10.5 12h-9C.672 12 0 11.33 0 10.5v-9C0 .671.672 0 1.5 0h9c.828 0 1.5.671 1.5 1.5v9c0 .829-.672 1.5-1.5 1.5"/>
            <path fill="#FFF" d="M4.788 8.25c-.089 0-.178-.031-.25-.095L2.75 6.564c-.154-.138-.168-.375-.03-.53.138-.155.375-.168.53-.03l1.538 1.37L8.75 3.844c.155-.138.391-.124.53.03.138.155.124.393-.03.53l-4.212 3.75c-.071.064-.16.095-.25.095"/>
        </g>
    </g>
</svg>
