<svg xmlns="http://www.w3.org/2000/svg" xmlns:xlink="http://www.w3.org/1999/xlink" width="40" height="40" viewBox="0 0 40 40">
    <defs>
        <path id="prefix__a" d="M0 0.135L25.702 0.135 25.702 25.915 0 25.915z"/>
        <path id="prefix__c" d="M0.077 0.121L25.755 0.121 25.755 25.904 0.077 25.904z"/>
    </defs>
    <g fill="none" fill-rule="evenodd">
        <g transform="translate(0 7) translate(0 .16)">
            <mask id="prefix__b" fill="#fff">
                <use xlink:href="#prefix__a"/>
            </mask>
            <path fill="#ED373C" d="M19.936 20.132c-1.571 1.56-3.144 3.118-4.715 4.679-1.475 1.466-3.29 1.474-4.753.014-3.121-3.116-6.212-6.264-9.375-9.34-1.453-1.412-1.46-3.475-.005-4.89C4.235 7.53 7.312 4.393 10.42 1.289c1.54-1.537 3.287-1.538 4.824-.008 1.557 1.549 3.111 3.1 4.667 4.65-.042.217-.235.314-.37.45-1.485 1.494-2.987 2.97-4.46 4.474-.94.961-1.15 2.104-.678 3.36.206.55.22.544.647.12 2.11-2.1 4.224-4.197 6.323-6.307.249-.25.392-.283.635-.004.333.381.695.744 1.078 1.076.313.272.328.442.013.751-2.137 2.098-4.244 4.227-6.381 6.325-.3.294-.304.445.004.71.372.317.722.666 1.04 1.038.294.344.474.385.83.021 2.07-2.113 4.179-4.189 6.26-6.293.297-.3.438-.282.589.1.253.64.337 1.287.181 1.967-.146.642-.48 1.159-.94 1.62-1.588 1.592-3.166 3.195-4.747 4.793" />
        </g>
        <g transform="translate(0 7) translate(14.085 .16)">
            <mask id="prefix__d" fill="#fff">
                <use xlink:href="#prefix__c"/>
            </mask>
            <path fill="#2F408D" d="M5.852 20.132c1.581-1.598 3.159-3.201 4.747-4.793.46-.461.794-.978.94-1.62.155-.68.071-1.327-.182-1.968-.15-.38-.292-.4-.59-.099-2.08 2.104-4.188 4.18-6.258 6.293-.356.364-.537.323-.831-.021-.317-.372-.668-.72-1.04-1.039-.307-.264-.303-.415-.004-.709 2.138-2.098 4.245-4.227 6.381-6.325.315-.31.3-.479-.013-.751-.383-.332-.744-.695-1.078-1.076-.243-.28-.386-.246-.634.004-2.1 2.11-4.214 4.206-6.324 6.307-.426.424-.44.43-.646-.12-.472-1.256-.263-2.399.678-3.36 1.473-1.504 2.974-2.98 4.459-4.473.136-.137.329-.234.37-.45 1.556-1.548 3.114-3.095 4.669-4.644 1.552-1.546 3.279-1.558 4.816-.022 3.133 3.129 6.239 6.284 9.403 9.38 1.394 1.365 1.381 3.41-.006 4.765-3.165 3.095-6.27 6.25-9.403 9.38-1.487 1.488-3.293 1.484-4.792-.009-1.555-1.549-3.108-3.1-4.662-4.65" />
        </g>
    </g>
</svg>
