<svg xmlns="http://www.w3.org/2000/svg" width="117" height="52" viewBox="0 0 117 52">
    <path fill="#0D47A1" fill-rule="evenodd" d="M111.912 46.476c.427 0 .673.18.736.54l.693 3.96c.064.364-.112.546-.525.546-.428 0-.673-.179-.736-.536l-.694-3.96c-.064-.367.111-.55.526-.55zM5.256 44.698l2.921 2.258h.061c.263 0 .373-.118.332-.354L8.35 45.34c-.069-.395.107-.591.528-.591.178 0 .34.048.485.146.145.098.234.24.267.424l.119.682c.077.44-.084.763-.483.965l-.228.11c-.164.085-.23.216-.198.395l1.17.92c.226.171.361.381.404.63.03.165.005.307-.072.425l-.247.379-3.042-2.375c-.282.007-.402.129-.36.364l.246 1.404c.062.357-.114.536-.528.536-.448 0-.703-.179-.766-.536l-.126-.722c-.085-.485.06-.837.436-1.055l.205-.127c.107-.06.173-.1.196-.121.047-.057.06-.145.04-.263l-.982-.763c-.266-.208-.42-.436-.463-.681-.03-.172.005-.332.103-.48l.203-.308zm62.132 0l2.921 2.258h.061c.263 0 .374-.118.332-.354l-.221-1.262c-.069-.395.107-.591.528-.591.178 0 .34.048.485.146.145.098.234.24.267.424l.119.682c.077.44-.084.763-.483.965l-.227.11c-.165.085-.23.216-.2.395l1.172.92c.225.171.36.381.403.63.03.165.005.307-.072.425l-.246.379-3.043-2.375c-.282.007-.402.129-.36.364l.246 1.404c.062.357-.114.536-.528.536-.448 0-.703-.179-.766-.536l-.126-.722c-.085-.485.06-.837.436-1.055l.205-.127c.108-.06.173-.1.196-.121.048-.057.06-.145.04-.263l-.982-.763c-.265-.208-.42-.436-.463-.681-.03-.172.004-.332.103-.48l.203-.308zm20 .126c1.255 0 1.994.626 2.213 1.88l.439 2.504c.063.364-.112.546-.526.546-.428 0-.673-.179-.736-.536l-.42-2.399c-.057-.33-.165-.552-.323-.667-.159-.114-.403-.17-.733-.17h-2.389l-.065-.375c-.092-.522.122-.783.64-.783h1.9zm-1.732 1.965c.427 0 .672.178.735.535l.33 1.884c.064.364-.111.546-.526.546-.427 0-.673-.179-.735-.536l-.33-1.884c-.063-.363.112-.545.526-.545zm-8.481-1.965c.606 0 1.1.17 1.48.51.381.34.629.832.741 1.475l.42 2.4c.064.363-.108.545-.515.545-.428 0-.673-.179-.735-.536l-.403-2.298c-.11-.626-.468-.939-1.074-.939h-1.924l-.066-.374c-.091-.522.123-.783.641-.783h1.435zm-23.725 0c1.256 0 1.994.626 2.213 1.88l.44 2.504c.062.364-.113.546-.527.546-.428 0-.673-.179-.735-.536l-.42-2.399c-.058-.33-.166-.552-.324-.667-.158-.114-.402-.17-.732-.17h-2.39l-.065-.375c-.091-.522.122-.783.64-.783h1.9zm-41.135 0c.606 0 1.1.17 1.48.51.382.34.629.832.741 1.475l.42 2.4c.064.363-.108.545-.515.545-.428 0-.673-.179-.736-.536l-.402-2.298c-.11-.626-.467-.939-1.074-.939h-1.924l-.065-.374c-.092-.522.122-.783.64-.783h1.435zm20.245 1.965c.427 0 .673.178.735.535l.33 1.884c.064.364-.112.546-.525.546-.428 0-.673-.179-.736-.536l-.33-1.884c-.064-.363.112-.545.526-.545zm1.732-1.965c1.256 0 1.993.626 2.213 1.88l.439 2.504c.063.364-.112.546-.526.546-.428 0-.673-.179-.735-.536l-.42-2.399c-.059-.33-.166-.552-.324-.667-.159-.114-.403-.17-.733-.17h-2.389l-.065-.375c-.092-.522.122-.783.64-.783h1.9zm17.426 1.965c.428 0 .673.178.735.535l.33 1.884c.064.364-.111.546-.525.546-.428 0-.673-.179-.736-.536l-.33-1.884c-.063-.363.112-.545.526-.545zm13.561-1.965c.69 0 1.102.379 1.235 1.137l.569 3.247c.064.364-.109.546-.516.546-.42 0-.663-.179-.725-.536l-.507-2.894c-.04-.229-.188-.343-.444-.343h-.566l-.066-.374c-.09-.522.101-.783.576-.783h.444zm-22.567 0c.69 0 1.101.379 1.234 1.137l.57 3.247c.063.364-.11.546-.517.546-.42 0-.662-.179-.725-.536l-.507-2.894c-.04-.229-.188-.343-.444-.343h-.565l-.066-.374c-.091-.522.1-.783.575-.783h.445zm52.914 0c1.249 0 1.984.626 2.203 1.88l.438 2.504c.064.364-.108.546-.515.546-.434 0-.683-.179-.745-.536l-.42-2.399c-.099-.559-.393-.838-.885-.838h-.596c-.195 0-.333.065-.413.196-.08.132-.103.29-.07.476l.29 1.656c.163.93-.2 1.395-1.09 1.395h-.03c-.256 0-.48-.083-.672-.248-.193-.165-.313-.385-.36-.662l-.055-.308h.54c.297 0 .421-.138.373-.414l-.17-.965c-.079-.454.083-.73.487-.828l.087-.02c.08-.02.115-.067.102-.142-.016-.09-.066-.136-.15-.136H92.67l-.065-.374c-.091-.522.122-.783.64-.783h2.38zm-33.938 0c1.249 0 1.984.626 2.203 1.88l.439 2.504c.063.364-.109.546-.516.546-.434 0-.683-.179-.745-.536l-.42-2.399c-.098-.559-.393-.838-.885-.838h-.595c-.196 0-.333.065-.413.196-.08.132-.103.29-.07.476l.29 1.656c.162.93-.201 1.395-1.09 1.395h-.03c-.257 0-.48-.083-.673-.248-.192-.165-.312-.385-.36-.662l-.054-.308h.54c.296 0 .42-.138.372-.414l-.169-.965c-.08-.454.082-.73.486-.828l.088-.02c.08-.02.114-.067.101-.142-.016-.09-.066-.136-.15-.136h-1.303l-.066-.374c-.091-.522.122-.783.641-.783h2.379zm42.636 0c.69 0 1.101.379 1.234 1.137l.569 3.247c.064.364-.108.546-.516.546-.42 0-.663-.179-.725-.536l-.507-2.894c-.04-.229-.188-.343-.444-.343h-.565l-.066-.374c-.092-.522.1-.783.575-.783h.445zM45.33 44.79c.322 0 .668.133.74.542l.031.173.363 2.058c.102.583.463.921 1.014.921h1.04c.582 0 .87-.306.76-.93l-.187-1.065c-.067-.38-.25-.584-.612-.584h-.011c-.322 0-.46.164-.386.584l.18 1.013h-.146c-.51 0-.993-.379-1.09-.932l-.045-.256c-.156-.89.238-1.483 1.225-1.483h.166c.977 0 1.766.47 1.964 1.586l.163.931c.129.727-.246 2.385-2.135 2.385h-.27c-2.405 0-2.806-1.648-2.933-2.364l-.328-1.864-.029-.163c-.074-.42.214-.552.526-.552zm-25.016-.05c.328 0 .658.123.73.533l.352 2.02c.211 1.46-1.144 2.375-2.489 2.375h-.28c-1.2 0-2.657-.568-2.904-1.968-.096-.538-.364-2.067-.426-2.418-.072-.41.213-.543.519-.543.318 0 .656.124.729.534l.428 2.437c.08.437.29.71.658.71.307 0 .463-.281.426-.506l-.466-2.632c-.072-.41.203-.543.51-.543.328 0 .656.124.727.534l.372 2.18c.08.443-.075.728-.53.821l-.128.019c-.132.022-.203.323.167.323h.28c.782 0 1.323-.471 1.215-1.084l-.397-2.25c-.072-.41.202-.543.507-.543zM.538 43.136c.428 0 .673.178.736.535l.201 1.152h1.117c1.144 0 1.816.566 2.014 1.697l.018.101c.082.468.021.833-.182 1.096-.145.192-.416.372-.814.54l-.076.03c-.392.166-.553.446-.485.84l.09.515h-.312c-.344 0-.602-.056-.777-.167-.175-.111-.286-.303-.333-.576l-.012-.065c-.084-.482.22-.827.915-1.036l.14-.04c.493-.158.7-.472.617-.94-.097-.558-.397-.838-.899-.838H.622c-.138 0-.219-.07-.243-.207l-.366-2.092c-.064-.363.11-.545.525-.545zm113.523 1.687c.566 0 1.037.143 1.412.43.375.286.612.708.71 1.267l.017.101c.082.468.022.834-.182 1.096-.145.192-.42.372-.824.54l-.07.031c-.34.138-.473.418-.4.839l.091.515h-.455c-.512 0-.81-.248-.898-.743l-.011-.066c-.089-.508.164-.853.758-1.035l.14-.04c.497-.158.705-.472.623-.94-.097-.552-.431-.828-1.004-.828h-2.823l-.062-.354c-.044-.252-.003-.45.122-.596.127-.144.314-.217.564-.217h2.292zm-5.964 0c1.276 0 2.018.593 2.225 1.778l.071.404c.096.546-.066.921-.485 1.126l-.125.06c-.06.028-.083.077-.07.148.017.097.084.146.202.146h.323c.475 0 .757.254.846.763l.069.394h-4.354l-.074-.425c-.038-.211 0-.387.11-.525s.268-.207.474-.207h1.192c.572 0 .804-.311.695-.934l-.129-.733c-.098-.559-.433-.838-1.005-.838h-1.814l-.065-.374c-.091-.522.118-.783.63-.783h1.284zm-6.095-.076c.428 0 .676.194.743.581l.049.278c.065.374.017.702-.146.985-.19.296-.49.496-.9.601l-.048.01c-.114.027-.164.077-.15.152.012.07.08.13.207.176.822.29 1.297.8 1.425 1.531l.081.465c.014.077-.022.116-.106.116h-3.869l-.074-.424c-.039-.223-.006-.4.099-.533.104-.133.27-.2.5-.2h1.945c-.045-.256-.252-.407-.62-.455l-.348-.055c-1.47-.167-2.36-1.733-2.407-2.202l-.083-.475c-.064-.367.117-.55.545-.55.182 0 .343.053.486.161.141.108.229.257.263.45l.06.343c.127.724.488 1.086 1.084 1.086h.04c.647 0 .908-.358.782-1.076l-.068-.384c-.068-.387.103-.58.51-.58zm-75.585.076c1.276 0 2.018.593 2.226 1.778l.071.404c.095.546-.066.921-.485 1.126l-.126.06c-.059.028-.082.077-.07.148.017.097.085.146.203.146h.323c.474 0 .757.254.846.763l.069.394H25.12l-.075-.425c-.037-.211 0-.387.11-.525s.269-.207.474-.207h1.192c.573 0 .804-.311.695-.934l-.128-.733c-.098-.559-.433-.838-1.005-.838h-1.814l-.065-.374c-.091-.522.118-.783.63-.783h1.283zm12.501 0c1.277 0 2.019.593 2.226 1.778l.07.404c.096.546-.065.921-.484 1.126l-.125.06c-.06.028-.084.077-.07.148.017.097.084.146.202.146h.323c.475 0 .757.254.846.763l.069.394H37.62l-.075-.425c-.037-.211 0-.387.11-.525s.269-.207.474-.207h1.192c.573 0 .805-.311.695-.934l-.128-.733c-.098-.559-.433-.838-1.006-.838H37.07l-.065-.374c-.092-.522.118-.783.63-.783h1.283zm42.868 0c1.276 0 2.018.593 2.226 1.778l.07.404c.096.546-.065.921-.484 1.126l-.126.06c-.06.028-.082.077-.07.148.017.097.084.146.203.146h.323c.474 0 .756.254.845.763l.07.394h-4.354l-.075-.425c-.037-.211 0-.387.11-.525s.269-.207.474-.207h1.192c.573 0 .804-.311.695-.934l-.128-.733c-.098-.559-.433-.838-1.006-.838h-1.813l-.066-.374c-.09-.522.119-.783.631-.783h1.283zm-8.425 0c.69 0 1.096.344 1.216 1.03l.271 1.546c.068.39-.101.586-.509.586-.178 0-.337-.051-.476-.154-.14-.103-.225-.243-.256-.422l-.19-1.086c-.04-.229-.188-.343-.444-.343h-.566l-.066-.374c-.091-.522.1-.783.575-.783h.445zm-50.666 0c.69 0 1.095.344 1.215 1.03l.271 1.546c.068.39-.1.586-.508.586-.179 0-.338-.051-.477-.154-.14-.103-.224-.243-.255-.422l-.191-1.086c-.04-.229-.188-.343-.444-.343h-.566l-.065-.374c-.092-.522.1-.783.575-.783h.445zM35.359.634c46.051-3.66 71.332 9.163 73.734 22.307 1.138 6.234-2.96 12.15-9.125 15.462 2.144-2.267 3.247-4.876 3.09-7.76-.683-12.551-22.112-25.262-54.167-29.009C43.526 1.008 38.37.727 33.527.786c.652-.06 1.308-.114 1.969-.164zm42.057 13.693c4.111 0 7.956 1.785 9.127 8.43l.54 3.072c.99 5.607-1.856 8.305-6.133 8.305h-.736c-3.24 0-4.678-1.328-5.235-4.485l-.053-.301c-.083-.473.232-.857.705-.857h1.103c2.74 0 3.086-1.329 2.713-3.446l-.34-1.95c-.44-2.492-1.62-3.53-3.946-3.53h-.912c-1.765 0-2.94 1.537-2.5 4.028l1.314 7.47c.396 2.241-.607 2.74-2.765 2.74h-3.19c-.457 0-.888-.355-1.003-.8L63.99 21.061c-.19-1.08-.511-1.443-1.686-1.443-.664 0-1.117-.357-1.2-.833l-.084-.482c-.434-2.458.233-3.87 2.9-3.87h1.271c2.742 0 4.365 1.266 5.095 3.714.258.86 1.008.996 1.06.123.274-3.155 2.444-3.944 5.351-3.944zm-27.038.104c4.374 0 9.052 1.957 10.337 9.247l.154.874c1.102 6.248-1.528 9.29-7.027 9.29h-4.894c-1.912 0-2.378-1.283-1.967-2.32l1.134-2.867c.036-.088.117-.14.219-.14l4.506-.003c.49 0 .825-.164.944-.46.119-.297.008-.696-.312-1.12l-2.076-2.755c-.066-.087-.085-.194-.049-.282.006-.014 1.07-2.675 1.104-2.756.17-.424.14-.82-.084-1.118-.223-.297-.616-.46-1.105-.46l-4.976-.001c-.1.002-.202-.054-.269-.142l-2.013-2.668c-.783-1.037-.775-2.319 1.136-2.319zm-17.605 0c3.988 0 6.656 2.028 7.802 4.897.047.116-.026.232-.153.232l-2.655.001h-.987c-.49 0-.825.163-.943.46-.12.298-.12.56.2.984.074.098 1.834 2.428 2.189 2.894.031.042.05.09.06.136 0 .003 0 .004.002.005.006.047.002.095-.014.138-.194.471-1.066 2.657-1.106 2.756-.17.424-.14.821.084 1.119.223.295.616.459 1.104.459h.002l3.266.002c.1-.001.203.053.268.142 0 0 2.063 2.72 2.171 2.867.778 1.071.776 2.319-1.136 2.319H28.313c-2.667 0-4.195-.875-4.688-3.665l-.14-.799c-.083-.474.233-.859.708-.859h5.413c2.709 0 2.779-1.498 2.417-3.539l-.36-2.046c-.367-2.081-1.386-3.372-4.053-3.372l-5.028-.002c-.445 0-.872-.34-.996-.774l-.085-.482c-.433-2.458.234-3.87 2.9-3.87zm-18.86 0c3.165 0 4.584 1.665 5.076 4.456l.58 3.285.248 1.41.46 2.849c.083.473-.233.858-.708.858h-2.726c-2.292 0-3.522-.834-3.92-3.084l-.069-.54-.263-1.493-.218-1.237c-.17-.96-.368-1.375-1.45-1.375h-.829c-.445 0-.871-.34-.995-.774l-.086-.482c-.433-2.458.235-3.873 2.9-3.873z"/>
</svg>
