<svg xmlns="http://www.w3.org/2000/svg" width="40" height="40" viewBox="0 0 40 40">
    <g fill="none" fill-rule="evenodd">
        <path fill="#00579F" d="M17.317 12.787L14.08 12.787 16.104.267 19.341.267zM29.052.573C28.413.32 27.4.04 26.148.04c-3.196 0-5.448 1.705-5.461 4.142-.027 1.798 1.611 2.797 2.837 3.396 1.252.613 1.678 1.013 1.678 1.56-.013.838-1.012 1.224-1.944 1.224-1.293 0-1.985-.199-3.038-.666l-.426-.2-.453 2.81c.76.347 2.158.654 3.61.667 3.397 0 5.609-1.678 5.635-4.275.013-1.426-.852-2.518-2.717-3.41-1.133-.573-1.826-.96-1.826-1.545.013-.533.586-1.079 1.864-1.079 1.053-.027 1.826.226 2.412.48l.293.132.44-2.703zM37.35.267h-2.504c-.772 0-1.358.226-1.692 1.039l-4.808 11.48h3.397l.679-1.878h4.156c.093.44.387 1.878.387 1.878h2.997L37.35.266zM33.354 8.35c.267-.719 1.293-3.503 1.293-3.503-.014.027.266-.732.426-1.198l.226 1.079s.613 2.996.746 3.622h-2.69zM11.376.267l-3.17 8.537-.347-1.731c-.586-1.998-2.424-4.169-4.476-5.248l2.904 10.948h3.424L14.799.267h-3.423z" transform="translate(0 14)"/>
        <path fill="#FAA61A" d="M5.262.267H.053L0 .52c4.063 1.039 6.754 3.543 7.86 6.553L6.726 1.32C6.54.52 5.967.293 5.262.267" transform="translate(0 14)"/>
    </g>
</svg>
